<?xml version="1.0" encoding="utf-8"?>
<svg version="1.1" xmlns="http://www.w3.org/2000/svg" xmlns:xlink="http://www.w3.org/1999/xlink" x="0px" y="0px"
	 viewBox="0 0 419.9 468" width="419.9" height="468" style="enable-background:new 0 0 419.9 468;" xml:space="preserve">
<g>
	<path d="M210,215.4c59.5,0,107.7-48.2,107.7-107.7C317.6,48.2,269.4,0.1,210,0c-59.5,0-107.7,48.2-107.7,107.7
		S150.5,215.4,210,215.4z M210,31.4c42.2,0,76.4,34.2,76.4,76.4c0,42.2-34.2,76.3-76.4,76.4c-42.2,0-76.4-34.2-76.4-76.4
		C133.6,65.6,167.8,31.4,210,31.4z"/>
	<path d="M379.3,297.5c-25.9-26-61.1-40.6-97.8-40.6H138.4C62,257.1,0.1,318.9,0,395.3V468h31.3v-72.7c0.1-59,48.2-106.9,107-107
		h143.2c58.9,0.1,106.9,48.1,107,107V468h31.4v-72.7C420,358.6,405.4,323.4,379.3,297.5z"/>
</g>
</svg>
